<?xml version="1.0" encoding="UTF-8" standalone="no"?>
<svg width="51px" height="49px" viewBox="0 0 51 49" version="1.1" xmlns="http://www.w3.org/2000/svg" xmlns:xlink="http://www.w3.org/1999/xlink" xmlns:sketch="http://www.bohemiancoding.com/sketch/ns">
    <!-- Generator: Sketch 3.2.2 (9983) - http://www.bohemiancoding.com/sketch -->
    <title>fullscreen</title>
    <desc>Created with Sketch.</desc>
    <defs></defs>
    <g id="Page-1" stroke="none" stroke-width="1" fill="none" fill-rule="evenodd" sketch:type="MSPage">
        <g id="fullscreen" sketch:type="MSLayerGroup" transform="translate(-2.000000, -3.000000)" stroke-linecap="square" stroke="#000000">
            <g id="Line-+-Line-+-Line-2" transform="translate(42.236053, 41.718325) rotate(-45.000000) translate(-42.236053, -41.718325) translate(38.397201, 27.608449)" sketch:type="MSShapeGroup">
                <path d="M3.83885219,0.587911504 L3.83885219,28.0377769" id="Line"></path>
                <path d="M0.426539132,6.46702654 L3.43593718,1.14326146" id="Line"></path>
                <path d="M7.25116524,6.46702654 L4.2417674,1.14326118" id="Line-2"></path>
            </g>
            <g id="Line-+-Line-+-Line-2" transform="translate(12.832622, 41.741217) rotate(-315.000000) translate(-12.832622, -41.741217) translate(9.098769, 27.663715)" sketch:type="MSShapeGroup">
                <path d="M3.73385357,0.586562595 L3.73385357,27.9734468" id="Line"></path>
                <path d="M0.414872619,6.45218855 L3.34195892,1.14063835" id="Line"></path>
                <path d="M7.05283452,6.45218855 L4.12574842,1.14063807" id="Line-2"></path>
            </g>
            <g id="Line-+-Line-+-Line-2" transform="translate(42.236053, 13.281675) scale(1, -1) rotate(-45.000000) translate(-42.236053, -13.281675) translate(38.397201, -0.828201)" sketch:type="MSShapeGroup">
                <path d="M3.83885219,0.587911504 L3.83885219,28.0377769" id="Line"></path>
                <path d="M0.426539132,6.46702654 L3.43593718,1.14326146" id="Line"></path>
                <path d="M7.25116524,6.46702654 L4.2417674,1.14326118" id="Line-2"></path>
            </g>
            <g id="Line-+-Line-+-Line-2" transform="translate(12.832622, 13.258783) scale(1, -1) rotate(-315.000000) translate(-12.832622, -13.258783) translate(9.098769, -0.818719)" sketch:type="MSShapeGroup">
                <path d="M3.73385357,0.586562595 L3.73385357,27.9734468" id="Line"></path>
                <path d="M0.414872619,6.45218855 L3.34195892,1.14063835" id="Line"></path>
                <path d="M7.05283452,6.45218855 L4.12574842,1.14063807" id="Line-2"></path>
            </g>
        </g>
    </g>
</svg>